<svg width="685" height="685" viewBox="0 0 685 685" fill="none" xmlns="http://www.w3.org/2000/svg">
<circle cx="342.5" cy="342.5" r="342.5" fill="#060707"/>
<path d="M391.001 523V499C391.001 470 422.541 442.57 443.001 423C471.841 395.43 487.001 358.39 487.001 315C487.001 235 423.271 171 343.001 171C324.075 170.947 305.326 174.636 287.832 181.854C270.337 189.072 254.442 199.677 241.059 213.059C227.677 226.441 217.072 242.336 209.854 259.831C202.636 277.326 198.948 296.075 199.001 315C199.001 356.84 214.811 396.39 243.001 423C263.351 442.21 295.001 469.7 295.001 499V523" stroke="#FEFEFF" stroke-width="35" stroke-linecap="round" stroke-linejoin="round"/>
</svg>
